<svg id="Capa_1" data-name="Capa 1" xmlns="http://www.w3.org/2000/svg" viewBox="0 0 344.38 284.11"><defs><style>.cls-1{fill:#0e2618;}</style></defs><path class="cls-1" d="M279.64,95.36v0h0a56.95,56.95,0,0,0-107.44,3.56,56.95,56.95,0,0,0-111.29,17c0,15.37,5.4,29.68,15.2,40.28A52.28,52.28,0,0,0,112.6,173a23.93,23.93,0,0,0,2.94.2V168H115v-.14c-.69,0-1.38,0-2.07-.05a16.9,16.9,0,1,1,19.19-19.87l.61,3.22a39.89,39.89,0,0,0,17.07,27.64,22.52,22.52,0,0,0,8.72,16.07c-1.72,15.78,11.61,28.15,12.2,28.68l1.78,1.62,1.75-1.64c12.58-11.83,13.38-23,12.43-29.24a22.48,22.48,0,0,0,8-15.49,39.87,39.87,0,0,0,17-27.35h0l.69-3.65a16.9,16.9,0,1,1,16.6,20.06V173a52.8,52.8,0,0,0,39.07-16.83c9.91-10.63,15.36-24.93,15.36-40.29A56.6,56.6,0,0,0,279.64,95.36Zm-5.12,1.2a62,62,0,0,1-12.94,43.77,71.55,71.55,0,0,1-10.44,11c0-.14,0-.28,0-.43a22,22,0,0,0-1.3-7.46c3.9-4.2,14.59-17.47,14.35-36C264,94,258.09,80.81,246.55,68.2A52,52,0,0,1,274.52,96.56ZM200.09,71.45c22.8,1.48,29.22,12.35,33.16,20.23a32.48,32.48,0,0,0-15.86,1.56,33.07,33.07,0,0,0-5.89,2.84c-.83-.68-1.71-1.47-2.63-2.3-4.81-4.31-11.69-10.48-22.61-10.32A52.34,52.34,0,0,1,200.09,71.45Zm27.21,46.66c-7.57,3.32-16.71,2.56-27.21-2.23,2.41-4.38,8.7-14,19.11-17.77,7.27-2.63,15.34-2,24,1.92C241.54,104.27,236.82,113.94,227.3,118.11Zm-57.55,46.56a31.9,31.9,0,0,0-8.45,14.05,34.17,34.17,0,0,1-6.31-2.84,17.34,17.34,0,0,1,14.75-16Zm2.6,4.75A31.57,31.57,0,0,1,178.22,180a34.29,34.29,0,0,1-5.95.52,35.15,35.15,0,0,1-5.93-.51A26.94,26.94,0,0,1,172.35,169.42Zm10.92,9.3A37.78,37.78,0,0,0,175,164.49v-4.62a17.36,17.36,0,0,1,14.62,16A34.29,34.29,0,0,1,183.27,178.72Zm-66.48-60.61c-9.53-4.17-14.25-13.84-15.91-18.08,8.67-3.9,16.74-4.55,24-1.92,10.41,3.78,16.7,13.4,19.11,17.77C133.5,120.67,124.35,121.43,116.79,118.11Zm31.94-4.44a49.44,49.44,0,0,0-11.42-14.21c.54-.47,1.08-1,1.64-1.46,5.31-4.76,11.87-10.65,23.34-8.56a51.33,51.33,0,0,1,6.37,16.69A39.62,39.62,0,0,0,148.73,113.67Zm33.6-24.62c11.29-2,17.8,3.88,23.07,8.6.58.53,1.15,1,1.71,1.52a49.15,49.15,0,0,0-11.62,14.27,39.64,39.64,0,0,0-19.77-7.33A51.55,51.55,0,0,1,182.33,89.05Zm-23.92-5.23c-11.11-.29-18.08,6-22.93,10.31-.88.79-1.71,1.54-2.5,2.19a33.62,33.62,0,0,0-6.28-3.08,32.35,32.35,0,0,0-15.4-1.62c4-7.91,10.66-18.54,33.51-19.85A52,52,0,0,1,158.41,83.82ZM98.29,68c-11.87,12.77-18,26.13-18.14,39.81-.25,18.74,10.7,32.1,14.48,36.15a22,22,0,0,0-1.18,7.11c0,.28,0,.56,0,.84-8.91-7.58-26.13-26.2-23.62-55.35A52,52,0,0,1,98.29,68ZM66.13,117.49A69.7,69.7,0,0,0,78.76,144a72.94,72.94,0,0,0,16.51,15.85,21.93,21.93,0,0,0,3.1,5.11C79.61,158.2,66.71,140.08,66.13,117.49Zm31,21.42c-4-4.8-12-16.12-11.77-31,.2-14.66,8.1-29.1,23.48-42.93a51.78,51.78,0,0,1,27.36,2.57c-20.58,3.67-26.55,15.74-30.3,23.32-.38.78-.75,1.51-1.1,2.17a51.23,51.23,0,0,0-8.3,3.36l-1.91,1,.58,2.06a42.63,42.63,0,0,0,5.12,10.78c-.64,10.57,2.29,17.91,4.37,21.69A22.36,22.36,0,0,0,97.11,138.91Zm12.36-9.07a32.31,32.31,0,0,1-3.93-13.21,30.94,30.94,0,0,0,9.12,6.22,28.3,28.3,0,0,0,5.48,1.78,38.76,38.76,0,0,0-.67,4.7,22.18,22.18,0,0,0-3.93-.35A21.77,21.77,0,0,0,109.47,129.84Zm15.13,1.09a29.69,29.69,0,0,1,.71-5.62q.75,0,1.5,0a41.47,41.47,0,0,0,12.65-2.13,39.64,39.64,0,0,0-6.25,14.59A22.22,22.22,0,0,0,124.6,130.93Zm13.33,19.67h0l-.06-.3a34.59,34.59,0,0,1,31.49-39c.14,1.53.21,3.07.21,4.63h0l.12,38.7a22.56,22.56,0,0,0-19.54,17.94A34.63,34.63,0,0,1,137.93,150.6Zm25.68,47.18a22.4,22.4,0,0,0,6.13,1.59l.11,15.2C166.94,210.56,163.66,204.55,163.61,197.78Zm11.44,17.29-.11-15.72a22.46,22.46,0,0,0,6.84-1.95C181.92,201.82,180.7,208.08,175.05,215.07Zm-2.78-20.75a17.35,17.35,0,0,1-16.55-12.22,39.76,39.76,0,0,0,33.11,0A17.36,17.36,0,0,1,172.27,194.32Zm22.09-21.77a22.59,22.59,0,0,0-19.44-17.93l-.11-40.06c0-1.1.09-2.2.19-3.29a34.43,34.43,0,0,1,18.25,7l0,.05.24.12a34.64,34.64,0,0,1,.89,54.14Zm17-34.81a39.86,39.86,0,0,0-6.1-14.34,41.14,41.14,0,0,0,12,1.94c.62,0,1.23,0,1.84,0a28.24,28.24,0,0,1,.64,5.6A22.18,22.18,0,0,0,211.33,137.74Zm13.57-8.51a39.62,39.62,0,0,0-.63-4.67,28.38,28.38,0,0,0,5.16-1.71,31,31,0,0,0,9.37-6.47,32.06,32.06,0,0,1-4,13.22,22.24,22.24,0,0,0-5.76-.76A22,22,0,0,0,224.9,129.23Zm14.79,2.34c2.08-3.77,5-11.15,4.38-21.78a42.38,42.38,0,0,0,4.87-10.39l.58-2.06-1.91-1a51.37,51.37,0,0,0-7.86-3.23l.06,0c-.42-.76-.87-1.67-1.34-2.62-3.71-7.5-9.6-19.4-29.66-23.21A51.91,51.91,0,0,1,236,65c15.05,13.68,22.79,27.95,23,42.44.22,14.79-7.63,26.13-11.7,31A22.32,22.32,0,0,0,239.69,131.57Zm6.53,33.25a22.13,22.13,0,0,0,3.33-5.63,74.8,74.8,0,0,0,16-15.54,69.56,69.56,0,0,0,12.67-26.71C277.88,139.63,265,157.89,246.22,164.82Z"/></svg>